<?xml version="1.0" encoding="UTF-8" standalone="no"?>
<svg
   xmlns:dc="http://purl.org/dc/elements/1.1/"
   xmlns:cc="http://creativecommons.org/ns#"
   xmlns:rdf="http://www.w3.org/1999/02/22-rdf-syntax-ns#"
   xmlns:svg="http://www.w3.org/2000/svg"
   xmlns="http://www.w3.org/2000/svg"
   xmlns:sodipodi="http://sodipodi.sourceforge.net/DTD/sodipodi-0.dtd"
   xmlns:inkscape="http://www.inkscape.org/namespaces/inkscape"
   version="1.0"
   width="466px"
   height="610px"
   viewBox="0 0 4660 6100"
   preserveAspectRatio="xMidYMid meet"
   id="svg1135"
   sodipodi:docname="backstagepro_t.svg"
   inkscape:version="1.0.1 (3bc2e813f5, 2020-09-07)">
  <metadata
     id="metadata1141">
    <rdf:RDF>
      <cc:Work
         rdf:about="">
        <dc:format>image/svg+xml</dc:format>
        <dc:type
           rdf:resource="http://purl.org/dc/dcmitype/StillImage" />
        <dc:title></dc:title>
      </cc:Work>
    </rdf:RDF>
  </metadata>
  <defs
     id="defs1139" />
  <sodipodi:namedview
     pagecolor="#ffffff"
     bordercolor="#666666"
     borderopacity="1"
     objecttolerance="10"
     gridtolerance="10"
     guidetolerance="10"
     inkscape:pageopacity="0"
     inkscape:pageshadow="2"
     inkscape:window-width="1680"
     inkscape:window-height="995"
     id="namedview1137"
     showgrid="false"
     inkscape:zoom="1.0942767"
     inkscape:cx="336.20236"
     inkscape:cy="305"
     inkscape:window-x="2560"
     inkscape:window-y="282"
     inkscape:window-maximized="1"
     inkscape:current-layer="svg1135"
     inkscape:document-rotation="0" />
  <path
     style="display:inline;fill:#ff0000;stroke-width:0.913846"
     d="M 127.84555,304.60466 V 126.92326 L 129.8723,126.28 c 2.75268,-0.87367 83.34158,-0.88687 88.21551,-0.0144 l 3.88385,0.6952 v 36.79063 36.79063 l -10.63475,0.56993 c -5.84911,0.31346 -10.88668,0.82179 -11.19461,1.12963 -0.30792,0.30783 -0.66048,46.14507 -0.78346,101.86053 -0.21121,95.6856 -0.13522,101.32621 1.37077,101.75847 0.8769,0.2517 6.01509,0.73907 11.41821,1.08304 l 9.82384,0.62542 v 36.79501 36.79501 l -2.05616,0.55102 c -1.13088,0.30307 -22.30925,0.55665 -47.06305,0.56351 l -45.0069,0.0125 z"
     id="path587"
     transform="scale(10)" />
  <path
     style="display:inline;fill:#ff0000;stroke-width:0.913846"
     d="m 264.9224,482.28606 -21.47537,-0.45693 -0.56516,-10.50922 c -0.31084,-5.78008 -0.61926,-22.48182 -0.68538,-37.115 l -0.12023,-26.60577 4.23985,-0.58114 c 2.33192,-0.31962 7.24149,-0.58113 10.91016,-0.58113 h 6.6703 l 0.574,-3.88385 c 0.31571,-2.13611 0.44371,-15.8983 0.28446,-30.58264 -0.24602,-22.68505 -0.50346,-26.91248 -1.71242,-28.12022 -1.16566,-1.16446 -5.15902,-1.52645 -22.09068,-2.0024 l -20.66781,-0.58098 -0.59578,-7.3957 c -0.80238,-9.96016 -0.1908,-65.99987 0.73031,-66.91935 0.40238,-0.40167 9.91441,-0.89479 21.13784,-1.09581 11.22343,-0.20104 20.96935,-0.71312 21.65761,-1.13797 1.00293,-0.61909 1.30994,-6.17703 1.54634,-27.99363 0.16223,-14.97166 0.0342,-28.96892 -0.28446,-31.10503 -0.57814,-3.87529 -0.58804,-3.88385 -4.49784,-3.88385 -2.15514,0 -7.12232,-0.27083 -11.03818,-0.60184 l -7.11974,-0.60184 0.45308,-36.88627 c 0.24919,-20.28745 0.75578,-37.1855 1.12576,-37.55122 1.00618,-0.99459 89.27587,-0.20384 91.18305,0.81685 1.53157,0.81967 1.62025,5.11364 1.62025,78.45419 v 77.58705 l -10.73394,10.55633 -10.73395,10.55633 10.73395,10.76197 10.73394,10.76199 v 77.92029 c 0,61.52256 -0.24039,78.00098 -1.14231,78.30366 -1.93299,0.6487 -47.45329,0.95577 -70.13765,0.47313 z"
     id="path591"
     transform="scale(10)" />
  <path
     style="display:inline;fill:#ffffff;stroke:#000000;stroke-width:10px;stroke-linecap:butt;stroke-linejoin:miter;stroke-opacity:1"
     d="m 90.00592,1992.3648 750.33941,-743.5521 8.15246,4010.866 2501.06331,-2.2428 -778.4643,760.6446 -2481.09088,-9.2099 z"
     id="path593" />
  <path
     style="fill:#ffffff;stroke:#000000;stroke-width:10px;stroke-linecap:butt;stroke-linejoin:miter;stroke-opacity:1"
     d="m 1294.0576,806.7538 2497.1057,20.77363 3.3041,4002.67057 766.2595,-753.9494 L 4549.5726,69.035558 H 2058.1935 Z"
     id="path595" />
</svg>
