<?xml version="1.0" encoding="utf-8"?>
<!-- Generator: Adobe Illustrator 21.0.0, SVG Export Plug-In . SVG Version: 6.00 Build 0)  -->
<svg version="1.1" id="logo" xmlns="http://www.w3.org/2000/svg" xmlns:xlink="http://www.w3.org/1999/xlink" x="0px" y="0px"
	 viewBox="0 0 400 300" style="enable-background:new 0 0 400 300;" xml:space="preserve">
<style type="text/css">
	.st0{fill:#70B100;}
	.st1{fill:#78C800;}
	.st2{fill:#8EE000;}
	.st3{fill:#FFFFFF;}
	.st4{fill:#3F3F3F;}
	.st5{fill:#71B200;}
	.st6{fill:#F49000;}
	.st7{fill:#FFC200;}
	.st8{fill:#FFF3B8;}
	.st9{fill:#D98500;}
	.st10{fill:#E0E0E0;}
</style>
<path id="text" class="st0" d="M127.3,239.4h9v18c0,4.9-0.5,8.3-1.4,10.2c-1.2,2.9-2.9,5-5.4,6.6c-2.4,1.6-5.4,2.3-9,2.3
	c-3.8,0-7.1-0.9-9.5-2.6c-2.4-1.9-4.2-4.3-5.2-7.5c-0.5-1.9-0.9-4.9-1-9v-18h9.2v17.8c0,3.1,0.2,5.2,0.7,6.4
	c0.5,1.4,1.2,2.4,2.3,3.1c1,0.7,2.3,1,3.8,1c1.6,0,2.8-0.3,3.8-1c1.2-0.7,1.9-1.7,2.4-3.1c0.3-0.9,0.5-2.9,0.5-6.2V257h-0.2V239.4z
	 M175,248c1.7,2.9,2.4,6.1,2.8,9.4c0,3.5-0.9,6.6-2.6,9.5c-1.7,2.9-4,5.2-6.9,6.9c-2.9,1.6-6.2,2.4-9.7,2.4c-5,0-9.5-1.9-13.2-5.5
	c-3.6-3.6-5.5-8.1-5.5-13.3c0-5.7,2.1-10.2,6.2-14c3.6-3.3,7.8-4.9,12.5-4.9c3.3,0,6.6,0.9,9.5,2.6C171,242.8,173.2,245.1,175,248
	L175,248z M168.4,257.4c0-2.9-0.9-5.5-2.8-7.5c-1.9-1.9-4.2-2.9-7.1-2.9c-2.8,0-5,1-6.9,2.9c-1.9,1.9-2.8,4.5-2.8,7.5
	c0,3.1,0.9,5.7,2.8,7.6c1.7,1.9,4,2.9,6.9,2.9c2.9,0,5.2-1,7.1-2.9C167.4,263.1,168.4,260.5,168.4,257.4z M91.6,227.2h9v30.2v1.2
	c-0.2,2.9-0.9,5.7-2.4,8.3c-1.7,2.9-4,5.2-6.9,6.9c-2.9,1.6-6.2,2.4-9.7,2.4c-5,0-9.5-1.9-13.2-5.5c-3.6-3.6-5.5-8.1-5.5-13.3
	c0-5.5,2.1-10.2,6.2-14c3.6-3.3,7.8-4.9,12.5-4.9c3.3,0,6.6,0.9,9.5,2.6c0.2,0,0.3,0.2,0.5,0.2V227.2z M91.5,257.4
	c0-2.9-0.9-5.5-2.8-7.5c-1.9-1.9-4.2-2.9-7.1-2.9c-2.8,0-5,1-6.9,2.9c-1.9,1.9-2.8,4.5-2.8,7.5c0,3.1,0.9,5.7,2.8,7.6
	c1.7,1.9,4.2,2.9,6.9,2.9c2.9,0,5.2-1,7.1-2.9C90.6,263.1,91.5,260.5,91.5,257.4z M253.8,247.7c-1.2-2.8-2.9-5-5.4-6.6
	c-2.4-1.6-5.4-2.3-9-2.3c-4,0-7.1,0.9-9.5,2.6c-2.4,1.7-4.2,4.2-5.2,7.5c-0.5,1.7-0.9,4.9-1,9v17.8h9.2v-17.3v-0.7
	c0-2.9,0.2-5.2,0.7-6.4c0.5-1.4,1.2-2.3,2.3-3.1c1-0.7,2.3-1,3.8-1s2.8,0.3,3.8,1s1.9,1.7,2.4,3.1c0.3,1,0.5,3.1,0.5,6.2v18.2h9
	v-15.2v-2.8C255.2,253.1,254.7,249.6,253.8,247.7L253.8,247.7z M193.3,266.4c-1-0.7-1.9-1.7-2.3-3.1c-0.3-1-0.5-3.1-0.5-6.2v-29.8
	h-9v29.6c0.2,4.9,0.5,8.1,1.4,10.2c1.2,2.8,2.9,5,5.4,6.6c2.4,1.6,5.4,2.3,9,2.3h6.9v-8.5h-7.1C195.6,267.4,194.4,267.1,193.3,266.4
	z M336.8,257.9c0,3.3-0.9,6.4-2.6,9.4c-1.6,2.9-4,5.2-6.9,6.9c-2.9,1.7-6.1,2.6-9.5,2.6c-4.7,0-8.8-1.6-12.5-4.9
	c-4.2-3.8-6.2-8.5-6.2-14c0-5.2,1.9-9.7,5.5-13.3c3.6-3.6,8-5.5,13.2-5.5c3.6,0,6.8,0.7,9.7,2.4c2.9,1.7,5.2,4,6.9,6.9h0
	C336.1,251.3,337,254.4,336.8,257.9z M327.8,257.9c0-3.1-0.9-5.7-2.8-7.6c-1.9-1.9-4.3-2.9-7.1-2.9c-2.8,0-5,1-6.9,2.9
	c-1.9,1.9-2.8,4.5-2.8,7.6c0,2.9,0.9,5.5,2.8,7.5c1.7,1.9,4.2,2.9,6.9,2.9c2.9,0,5.2-1,7.1-2.9C326.9,263.5,327.8,261,327.8,257.9z
	 M295.9,256.3c0.2,0.3,0.2,0.9,0,1.2v1.2v18.9c0,3.3-0.7,6.4-2.4,9.4c-1.7,2.9-4,5.2-6.9,6.9c-2.9,1.7-6.2,2.6-9.5,2.6
	c-4.5,0-8.7-1.6-12.3-4.9l-0.2-0.2l5.9-6.2c1.9,1.9,4.2,2.8,6.9,2.8c2.8,0,5-1,6.9-2.9c1.7-1.9,2.8-4.3,2.8-7.5v-4.2
	c-0.2,0.2-0.3,0.2-0.5,0.3c-2.9,1.7-6.2,2.6-9.5,2.6c-4.7,0-8.7-1.6-12.3-4.9c-4-3.6-6.1-8.3-6.1-13.9c0-5.2,1.7-9.7,5.4-13.3
	c3.6-3.8,8-5.5,13.2-5.5c3.5,0,6.6,0.7,9.5,2.4c2.8,1.7,5,4,6.8,6.9C294.9,250.8,295.8,253.4,295.9,256.3L295.9,256.3z M287.1,257.6
	c0-3.1-1-5.5-2.8-7.6c-1.7-1.9-4.2-2.9-6.9-2.9c-2.8,0-5,1-6.9,2.9c-1.9,2.1-2.8,4.5-2.8,7.6c0,3.1,0.9,5.5,2.8,7.5
	c1.9,1.9,4.2,2.9,6.9,2.9c2.8,0,5-1,6.9-2.9S287.1,260.7,287.1,257.6z M213.3,227.9c-2.6,0-4.9,2.3-4.9,4.9s2.1,4.9,4.9,4.9
	c2.6,0,4.9-2.1,4.9-4.9C218.1,230,215.9,227.9,213.3,227.9z M208.9,275.8h9.2v-34.8h-9.2V275.8z"/>
<g id="owl" transform="translate(35)">
	<path class="st1" d="M132.6,2.7c17.1,0,21.2,22.8,54.9,22.8c21.3,0,22.5-8.8,32.3-8.8c4,0,6.3,7.7,6.3,12.9c0,20.3-5.2,43-1.8,43
		c4.4,0,22.4-11.6,27-11.6c4.4,0,4.3,3.4,4.3,5.4s1.3,35.6-44,62.1c-2,1.2-11.6,43.2-45.5,43.2c-22.6,0-39.9-12.3-46.4-41.7
		c-1.3-6-49.7-25.2-49.7-67.4c0-9.3,2.3-14.3,5.9-14.3c8.9,0,28,15.1,36.2,15.1c7.1,0,6-15.6,6-20.3C118,38.2,117.6,2.7,132.6,2.7
		L132.6,2.7z"/>
	<path class="st2" d="M206.5,33.7c-0.5-0.5,2.2-1.7,2.2-2.2c0-0.3-0.4-0.2-0.9-0.2c-3.3,0-9.6,4.7-10.4,4.7c-0.4,0-1,0.1-1-0.5
		c0-1.3,4.5-2.5,1.4-2.5c-3.1,0-7.8,4-12.5,4c-9.9,0-17.8-7.8-17.8-5.9c0,0.7,1.2,1.8,1.9,3.2c0,0,0.4,2.1-0.4,1.3
		c-9.1-9.1-18.2-11.3-18.2-11.3s-0.7,0-0.7,0.3c0,1,2,2.4,2,2.8c0,0.4-0.3,0.7-0.7,0.7c-1.9,0-3.3-3.7-11.1-3.7
		c-11.8,0-14.9,18.5-14.9,33.7c0,21.5,13.8,28.4,25.3,28.4c9.1,0,18.8-5.4,22.9-13.2l12.1,0.9c0,0,5.9,11.2,16.5,11.2
		c10,0,18.7-6.4,18.7-28.3c-0.3-23.1-6.3-24.1-9.3-24.1C208.3,33.1,207.6,34.7,206.5,33.7L206.5,33.7z"/>
	<path class="st3" d="M148.9,79.4c8.6,0,15.6-8.6,15.6-19.2s-7-19.2-15.6-19.2s-15.6,8.6-15.6,19.2S140.3,79.4,148.9,79.4z
		 M214.7,61.8c-0.5,9.2-6.5,16.6-13.4,16.3s-12.2-8-11.7-17.2c0.5-9.2,6.5-16.6,13.4-16.3C210,44.8,215.2,52.5,214.7,61.8z"/>
	<path class="st4" d="M148.9,71c4.6,0,8.4-4.8,8.4-10.8s-3.8-10.8-8.4-10.8c-4.6,0-8.4,4.8-8.4,10.8S144.2,71,148.9,71z M208.7,61.8
		c-0.4,5.3-3.9,9.4-7.9,9.2c-3.9-0.2-6.9-4.6-6.5-9.9c0.4-5.3,3.9-9.4,7.9-9.2C206.2,52,209.1,56.5,208.7,61.8z"/>
	<path class="st5" d="M169.3,80.1c0,9.2-1,20.6,4.2,20.6c6.5,0,5.3-9.9,5.2-10C178.8,90.6,169.3,80.1,169.3,80.1z"/>
	<path class="st3" d="M142.3,56.6c2.3,0,4.2-1.9,4.2-4.2s-1.9-4.2-4.2-4.2s-4.2,1.9-4.2,4.2S140,56.6,142.3,56.6z M200.4,55.9
		c0.1,2.3-1.4,4.2-3.5,4.3c-2,0.1-3.6-1.8-3.7-4.1c-0.1-2.3,1.4-4.2,3.5-4.3C198.6,51.8,200.3,53.6,200.4,55.9z"/>
	<path class="st5" d="M248.3,93.8c-9,13.1-27.8,23.4-30.9,23.4c-3.5,0-1.1-3.7-3.6-3.7c-2.3,0-2.7,39.1-42.9,39.1
		c-45.2,0-44.2-46.6-48.5-46.6c-3.2,0-1.1,6.8-4.5,6.8c-11.4,0-41.8-23-46.9-39.4c7.1,34.8,47.5,51.1,48.8,56.7
		c6.6,29.3,23.9,41.6,46.5,41.6c33.9,0,43.6-41.9,45.6-43.1C230.7,117.7,241.8,105,248.3,93.8z"/>
	<path class="st6" d="M169.2,77.7c0,5.4-0.7,16.2,5.8,16.2c6.9,0,9.3-8.6,9.3-14S169.2,77.7,169.2,77.7z"/>
	<path class="st7" d="M190.8,82.3c0,6.2-5.3,12.6-7,12.6c-1.8,0-14.5-11.4-14.5-16.3c0-4.9,4.8-8.8,11.7-8.8
		C186.5,69.8,190.8,76.1,190.8,82.3z"/>
	<path class="st8" d="M180.1,72.2c-2-0.1-3.6,0.8-3.7,2.1c-0.1,1.3,1.5,2.5,3.5,2.6c2,0.1,3.6-0.8,3.7-2.1
		C183.7,73.5,182.1,72.4,180.1,72.2z"/>
	<path class="st9" d="M159.7,176.5c5.7-0.3,9.8,0.9,10.1,6.2c0.2,5.3-6.7,6.6-10.4,6.9c-3.7,0.2-7.9-1.5-8.1-5.4
		C151.1,180.5,154.5,176.8,159.7,176.5z M194.7,165.7c5.5-0.3,5.5,5.8,5.6,6.3c0,0.5,0.6,6.4-9,6.9c-6,0.3-5.9-2.5-5.9-3.8
		C185.4,173.6,187.8,166.1,194.7,165.7L194.7,165.7z"/>
	<ellipse class="st10" cx="166.2" cy="206.4" rx="49.7" ry="4.8"/>
</g>
</svg>
